<svg xmlns="http://www.w3.org/2000/svg" width="374.261" height="359.259" viewBox="0 0 374.261 359.259"><defs><style>.a{fill:#fff;}.b{fill:#fcdc4a;}.c{fill:#211715;}</style></defs><path class="a" d="M186.512,261.886c-16.544.017-32.485.036-39.715.036-3.638,19.44-10.968,65.413-15.682,94.765,7.787,0,31.336.226,55.4.148,24.061.078,47.61-.148,55.4-.148-5.236-32.914-12.18-76.586-15.683-94.765C219,261.922,203.055,261.9,186.512,261.886Z"></path><path class="a" d="M176.73,291.587c0-3.46-4.762-6.34-10.42-6.34-7.848,0-11.218,4.135-11.218,6.982,0,4.214,4.747,7.36,11.5,7.36C173.861,299.589,176.73,295.417,176.73,291.587Z"></path><path class="a" d="M118.675,53.207c-4.8-2.259-9.734.242-11.752,7.927-1.2,4.572.225,20.519,1.026,22.768,1.441,4.046,2.589,5.486,4.918,6.678a8.7,8.7,0,0,0,7.87.144"></path><path class="a" d="M212.866,141.749V130.735s0-.037,0-.109c-13.01.039-39.244.316-48.425.316v11.319c9.079-.316,38.726-.32,48.42-.014Z"></path><path class="a" d="M262.292,231.246c-1.16-6.076-3.106-20.634-5.351-26.414a278.562,278.562,0,0,0-28.188-54.1c-1.815-2.711-3.8-5.5-6.721-6.957-2.437-1.217-5.249-1.365-7.97-1.482-8.4-.362-41.989-.362-50.383,0-2.721.117-5.534.265-7.97,1.482-2.919,1.457-4.906,4.246-6.722,6.957a278.558,278.558,0,0,0-28.187,54.1c-2.329,5.994-6.645,19.585-7.777,25.894"></path><path class="a" d="M126.1,141.2a100.592,100.592,0,0,0-10.308-1.443c-2.947-.233-6.028-.318-8.728.886-3.013,1.345-5.126,4.1-7.016,6.8A153.484,153.484,0,0,0,86,172.118a11.323,11.323,0,0,0-1.408,5.665,10.865,10.865,0,0,0,2.036,4.705,73.753,73.753,0,0,0,32.356,27.2c.58-1.632,1.19-3.251,1.813-4.855a278.558,278.558,0,0,1,28.187-54.1c.583-.87,1.184-1.748,1.827-2.588A139.281,139.281,0,0,0,126.1,141.2Z"></path><path class="a" d="M258.5,140.157c-9.778,1.445-22.539,5.655-30.889,8.914.393.548.772,1.106,1.143,1.661a278.562,278.562,0,0,1,28.188,54.1,39.929,39.929,0,0,1,1.457,5.007,73.749,73.749,0,0,0,32.712-27.351,10.877,10.877,0,0,0,2.036-4.705,11.323,11.323,0,0,0-1.408-5.665A153.56,153.56,0,0,0,277.7,147.447c-1.891-2.705-4-5.459-7.016-6.8-2.7-1.2-5.781-1.119-8.728-.886C260.855,139.844,259.7,139.98,258.5,140.157Z"></path><path class="a" d="M160.014,31.472c-7.649,1.847-15.074,5.84-19.475,12.364-3.123,4.629-4.528,10.192-5.483,15.694a117.636,117.636,0,0,0,1.519,47.441,37.657,37.657,0,0,0,12.543,20.052,16.609,16.609,0,0,0,10.458,3.919c9.882,0,45.164-.321,55.941-.321,3.553,0,7.464-1.89,10.065-3.737a33.673,33.673,0,0,0,12.936-19.913,117.636,117.636,0,0,0,1.518-47.441c-.955-5.5-2.359-11.065-5.482-15.694-4.4-6.524-11.826-10.517-19.476-12.364S167.664,29.624,160.014,31.472Z"></path><path class="a" d="M114.575,207.608c-3.6,7.193-1.64,14.21,6.4,14.468,4.891.157,16.9.379,20.948.492,4.129.115,6.683,28.748,1.993,28.609-16.793-.5-43.149-.989-60.312-1.483A14.949,14.949,0,0,1,70.288,228.9c6.2-14.634,12.451-27.886,19.1-42.393"></path><path class="a" d="M264.052,207.146c1.27,3.6,3.208,8.354,4.141,10.989,3.219,9.09-.029,13.887-7.8,19.6-5.847,4.294-12.743,8.489-17.11,11.864-2.185,1.687,13.22,26.277,15.432,24.845,9.848-6.376,23.522-15.821,33.99-23.353,10.144-7.3,12.686-21.213,8.305-32.918-3.916-10.461-7.978-20.682-13.072-31.218"></path><path class="a" d="M243.282,249.6c-6.162-3.716-13.8-3.243-20.027.354-4.7,2.715-8.987,9.278-10.525,14.488-1.484,5.028-2.618,10.492-.875,15.436,2.454,6.965,10.164,10.97,17.541,11.3s14.539-2.267,21.434-4.912c2.419-.928,4.973-1.969,6.484-4.075,2.324-3.238,1.364-7.737-.069-11.458A59.26,59.26,0,0,0,243.282,249.6"></path><path class="a" d="M305.221,241.9c2.973-10.672,1.391-22.681-4.848-31.882-10.162,3.51-22.276,7.116-32.219,11.085a12.761,12.761,0,0,1-2.445,11.714c-.506.6-1.109,1.28-.988,2.057.113.725.811,1.189,1.443,1.561,10.264,6.031,22.623,12,33.106,17.641A36.436,36.436,0,0,0,305.221,241.9Z"></path><path class="a" d="M256.416,53.207c4.8-2.259,9.734.242,11.751,7.927,1.2,4.572-.225,20.519-1.026,22.768-1.44,4.046-2.589,5.486-4.918,6.678a8.7,8.7,0,0,1-7.869.144"></path><path class="a" d="M68.472,240.952A42.91,42.91,0,0,1,66,233.88c-1.5-5.775,1.277-16.144,6.073-22.211a2.411,2.411,0,0,1,.964-.871,2.453,2.453,0,0,1,1.426.068c16.168,4.021,24.227,4.049,40.745,1.871-1.165,4.52-.288,7.392,1.994,9.372-7.67,8.52-15.032,16.774-23.681,22.7-3.636,2.492-9.5,5.638-13.9,5.727C74.653,250.64,70.962,246.365,68.472,240.952Z"></path><path class="a" d="M188.948,231.773c0-12.1-11.023-22.172-24.122-22.172-18.167,0-25.969,14.46-25.969,24.417,0,14.737,10.988,25.735,26.632,25.735C182.306,259.753,188.948,245.164,188.948,231.773Z"></path><path class="b" d="M254.637,46.71c-4.247-10.944-9.216-22.142-18.195-29.7-13.107-11.042-31.875-14.6-48.9-14.6s-35.79,3.563-48.9,14.6C129.67,24.568,124.7,35.766,120.454,46.71c-3.134,12-1.983,44.966,4.123,55.559,2.943,12.089,9.767,26.22,31.422,28.219a16.716,16.716,0,0,1-6.881-3.465,37.657,37.657,0,0,1-12.543-20.052,117.636,117.636,0,0,1-1.519-47.441c.955-5.5,2.36-11.065,5.483-15.694,4.4-6.524,11.826-10.517,19.475-12.364s47.415-1.848,55.064,0,15.075,5.84,19.476,12.364c3.123,4.629,4.527,10.192,5.482,15.694a117.636,117.636,0,0,1-1.518,47.441,33.673,33.673,0,0,1-12.936,19.913c-2.6,1.847-6.512,3.737-10.065,3.737-4.363,0-12.741.053-21.823.115H213.71c25.951,0,33.629-15.427,36.8-28.467C256.62,91.676,257.771,58.713,254.637,46.71Z" style="fill: rgb(0, 189, 213);"></path><path class="b" d="M165.489,259.753a30.132,30.132,0,0,1-8.69-1.243c.061,7.393.129,15.142.139,15.142,0,3.62,17.583,3.035,17.583-.061,0-4.918-.041-10.221-.084-15.494A23.493,23.493,0,0,1,165.489,259.753Z" style="fill: rgb(0, 189, 213);"></path><path class="b" d="M176.729,291.587c0-3.46-4.761-6.34-10.419-6.34-7.848,0-11.218,4.135-11.218,6.982,0,4.214,4.746,7.36,11.5,7.36C173.86,299.589,176.729,295.417,176.729,291.587Z" style="fill: rgb(0, 189, 213);"></path><path class="c" d="M156.7,259.516q-4.951,0-9.905.006a2.426,2.426,0,0,0-2.314,1.762c-2,10.712-3.775,21.469-5.556,32.22q-3.414,20.619-6.709,41.256-1.711,10.644-3.418,21.289a2.439,2.439,0,0,0,2.315,3.038c13.235,0,26.47.143,39.7.161q26.439.035,52.876-.074c6.071-.031,12.142-.085,18.213-.087a2.439,2.439,0,0,0,2.314-3.038q-4.01-25.207-8.083-50.407-1.129-6.933-2.279-13.862a2.419,2.419,0,0,0-2.952-1.677,2.457,2.457,0,0,0-1.677,2.953q4.172,25.119,8.134,50.271,1.116,7,2.228,14l2.315-3.038c-13.236,0-26.471.143-39.707.161q-26.437.035-52.875-.074c-6.071-.031-12.142-.085-18.212-.087l2.314,3.038q3.155-19.645,6.322-39.289c2.124-13.1,4.261-26.2,6.5-39.283.922-5.4,1.857-10.805,2.864-16.193l-2.314,1.762q4.953,0,9.905-.006c3.089,0,3.094-4.8,0-4.8Z"></path><path class="c" d="M213.649,259.514q-19.239-.018-38.476-.016c-3.089,0-3.094,4.8,0,4.8q19.237-.021,38.476.016c3.088,0,3.093-4.8,0-4.8Z"></path><path class="c" d="M152.1,341.435c8.3,0,16.611-.08,24.916-.146q16.02-.129,32.04-.319c3.873-.05,7.748-.094,11.621-.192,3.083-.079,3.095-4.879,0-4.8-8.278.21-16.562.257-24.841.341q-16.031.162-32.06.265c-3.892.024-7.784.05-11.676.051-3.088,0-3.094,4.8,0,4.8Z"></path><path class="c" d="M158.064,323.243c15.7,0,31.4-.183,47.1-.385,3.186-.041,6.372-.078,9.557-.158,3.083-.078,3.095-4.879,0-4.8-15.677.4-31.372.4-47.054.5-3.2.02-6.4.041-9.6.042-3.088,0-3.094,4.8,0,4.8Z"></path><path class="c" d="M174.2,78.088c1.352,4.405.471,14.538-7.85,15.4-11-.066-11.585-12.317-7.883-18.078C161.5,70.694,170.416,68.733,174.2,78.088Z"></path><path class="c" d="M219.682,78.088c1.352,4.405.472,14.538-7.85,15.4-11-.066-11.585-12.317-7.883-18.078C206.981,70.694,215.894,68.733,219.682,78.088Z"></path><path class="c" d="M182.108,112.975h13.017a2.4,2.4,0,1,0,0-4.8H182.108a2.4,2.4,0,0,0,0,4.8Z"></path><path class="c" d="M154.4,258.956c.039,4.692.071,9.384.126,14.076a4.317,4.317,0,0,0,1.05,3.126,6.88,6.88,0,0,0,3.277,1.712,27.071,27.071,0,0,0,9.024.563c2.552-.21,5.987-.488,7.947-2.381a3.52,3.52,0,0,0,1.086-2.34c.1-1.461.006-2.96,0-4.424q-.021-5.166-.068-10.332c-.025-3.088-4.825-3.1-4.8,0q.035,4.234.059,8.469.011,1.935.015,3.869c0,.657,0,1.315,0,1.972,0,.552-.068.446.065-.132-.094.41.242-.5.138-.315-.17.309.511-.536.08-.135-.264.245.565-.326.224-.174-.079.036-.156.1-.232.144s-.177.088-.263.137c-.343.194.01.127.18-.069-.127.147-.613.218-.8.273a15.185,15.185,0,0,1-1.488.356c-.3.058-.607.1-.91.154-.555.1.572-.059,0,0-.219.022-.437.051-.655.073a33.133,33.133,0,0,1-4.119.158c-.616-.014-1.231-.044-1.845-.1-.318-.027-.635-.066-.953-.1.785.085-.337-.06-.547-.1a11.332,11.332,0,0,1-1.416-.358c-.11-.036-.221-.09-.333-.118-.42-.109.518.295.167.069a2.764,2.764,0,0,0-.589-.34c.226-.023.5.439.225.158-.037-.038-.076-.074-.109-.115.52.643.3.417.205.243-.173-.309.231.65.137.313-.09-.321.02.72.048.313.011-.153-.005-.314-.007-.468-.058-4.726-.088-9.453-.127-14.18-.025-3.087-4.825-3.1-4.8,0Z"></path><path class="c" d="M306.653,232.883c17.737-.3,35.471-.94,53.2-1.453q6.043-.174,12.089-.337c3.083-.079,3.1-4.879,0-4.8-17.864.46-35.724,1.055-53.587,1.521-3.9.1-7.8.2-11.7.269-3.086.053-3.1,4.853,0,4.8Z"></path><path class="c" d="M190.436,234.721q30.015-.438,60.029-.914,8.178-.129,16.354-.262c3.086-.05,3.1-4.85,0-4.8q-29.511.478-59.024.92-8.679.129-17.359.256c-3.086.045-3.095,4.845,0,4.8Z"></path><path class="c" d="M2.318,236.958c17.156-.249,34.313-.485,51.471-.592q6.1-.037,12.206-.043c3.088,0,3.094-4.8,0-4.8-16.315,0-32.63.212-48.943.429q-7.366.1-14.734.206c-3.086.045-3.095,4.845,0,4.8Z"></path><path class="c" d="M203.457,157.212q3.6,0,7.206-.015,1.731,0,3.464-.006a14.851,14.851,0,0,1,1.579,0l-2.314-1.762h0l2.314-3.038a.59.59,0,0,1-.084,0,2.4,2.4,0,0,0,0,4.8.59.59,0,0,0,.084,0,2.523,2.523,0,0,0,1.885-.946,2.277,2.277,0,0,0,.429-2.092h0a2.544,2.544,0,0,0-2.314-1.762,14.85,14.85,0,0,0-1.579,0q-1.733,0-3.464.006-3.6.009-7.206.015a2.4,2.4,0,0,0,0,4.8Z"></path><path class="c" d="M264.606,230.608c-1.31-6.917-2.181-13.911-3.748-20.779a67.786,67.786,0,0,0-3.651-10.756q-2.959-7.194-6.294-14.227a278.865,278.865,0,0,0-14.736-27.019c-2.579-4.164-5.117-8.547-8.288-12.3a14.95,14.95,0,0,0-5.427-4.179,21.161,21.161,0,0,0-7.322-1.408c-11.882-.632-23.861-.364-35.754-.3-5.1.029-10.216.032-15.317.23-4.7.182-9.151.771-12.741,4.095a30,30,0,0,0-4.3,5.386q-2.106,3.132-4.12,6.326a278.549,278.549,0,0,0-14.98,26.885,237.019,237.019,0,0,0-12.152,29.1c-.833,2.517-1.57,5.063-2.182,7.643-.714,3,3.914,4.285,4.628,1.276,2.337-9.843,6.367-19.332,10.529-28.526a278.664,278.664,0,0,1,13.87-26.7q3.795-6.432,7.932-12.654a30.289,30.289,0,0,1,3.892-5.074,9.7,9.7,0,0,1,5.36-2.628,52.476,52.476,0,0,1,7.651-.423c2.647-.055,5.3-.085,7.944-.108,12.069-.1,24.155-.167,36.222.139,3.023.076,6.431-.116,9.2,1.233,3.8,1.85,6.066,6.351,8.262,9.743a278.6,278.6,0,0,1,14.855,25.9Q247.3,188.16,250.3,195a112.084,112.084,0,0,1,4.921,12.228c2.034,6.7,2.907,13.769,4.054,20.656.223,1.334.447,2.669.7,4a2.423,2.423,0,0,0,2.952,1.676,2.451,2.451,0,0,0,1.677-2.952Z"></path><path class="c" d="M80.35,211.927c3.664-8.089,7.412-16.139,11.114-24.21a2.473,2.473,0,0,0-.861-3.284,2.421,2.421,0,0,0-3.284.861c-3.7,8.071-7.45,16.121-11.114,24.21a2.474,2.474,0,0,0,.861,3.284,2.42,2.42,0,0,0,3.284-.861Z"></path><path class="c" d="M143.916,248.777c-15.945-.473-31.895-.77-47.842-1.157q-6.235-.151-12.47-.326c-3.09-.089-3.087,4.712,0,4.8,16.009.459,32.022.759,48.032,1.154q6.14.151,12.28.329c3.09.091,3.087-4.709,0-4.8Z"></path><path class="c" d="M115.819,223.307a19.093,19.093,0,0,0,7.261,1.23q3.325.088,6.652.157c4.064.09,8.128.162,12.191.274,3.09.085,3.087-4.715,0-4.8-3.838-.105-7.677-.175-11.515-.259q-3.184-.069-6.37-.147c-1.873-.048-4.039.149-5.8-.6a2.481,2.481,0,0,0-3.284.861,2.416,2.416,0,0,0,.861,3.283Z"></path><path class="c" d="M112.5,206.4a18.454,18.454,0,0,0-1.855,5.554,1.812,1.812,0,0,0-.043.957,1.783,1.783,0,0,0,.284.892,2.4,2.4,0,0,0,3.284.861,2.306,2.306,0,0,0,1.1-1.434,15.806,15.806,0,0,1,1.089-3.841l-.242.574q.245-.579.525-1.14a2.558,2.558,0,0,0,.242-1.85,2.448,2.448,0,0,0-1.1-1.434,2.423,2.423,0,0,0-1.849-.242,2.386,2.386,0,0,0-1.435,1.1Z"></path><path class="c" d="M300.5,210.13c-3.211-8.251-6.647-16.415-10.494-24.39a2.423,2.423,0,0,0-3.284-.861,2.452,2.452,0,0,0-.861,3.284c3.668,7.6,6.949,15.377,10.011,23.243a2.472,2.472,0,0,0,2.952,1.676,2.418,2.418,0,0,0,1.676-2.952Z"></path><path class="c" d="M259.925,276.512c11.534-7.474,22.833-15.329,33.99-23.353a2.469,2.469,0,0,0,.861-3.284,2.419,2.419,0,0,0-3.284-.861c-11.157,8.024-22.455,15.88-33.989,23.354-2.584,1.674-.18,5.831,2.422,4.144Z"></path><path class="c" d="M262.672,232.8a85.863,85.863,0,0,1-10.561,7.773c-3.378,2.267-6.812,4.473-10.041,6.953a2.481,2.481,0,0,0-.861,3.284,2.416,2.416,0,0,0,3.284.861c7-5.379,15.058-9.474,21.573-15.477,2.277-2.1-1.124-5.486-3.394-3.394Z"></path><path class="c" d="M261.738,207.784c1.307,3.69,2.829,7.3,4.14,10.989a2.4,2.4,0,0,0,4.629-1.276c-1.311-3.689-2.833-7.3-4.141-10.989a2.4,2.4,0,0,0-4.628,1.276Z"></path><path class="c" d="M187.545,4.8c14.923.024,30.663,2.565,43.3,10.988a46.768,46.768,0,0,1,14.891,16.9A102.3,102.3,0,0,1,250.593,43a34.373,34.373,0,0,1,1.866,4.893c.238,1,.423,2,.581,3.015q.063.405.12.811c.062.437-.012-.123.042.325.077.634.149,1.268.212,1.9.131,1.33.23,2.662.306,4,.168,2.964.224,5.935.2,8.9a145.47,145.47,0,0,1-1.234,18.284c-.374,2.743-.853,5.478-1.5,8.171-.287,1.2-.608,2.388-.984,3.561-.164.515-.339,1.028-.528,1.535-.089.241-.183.48-.277.719-.012.029-.148.358-.042.107.119-.283-.1.232-.128.285a18.246,18.246,0,0,0-1.273,3.09c-.276,1.064-.578,2.122-.913,3.17s-.695,2.067-1.1,3.081c-.268.677-.206.532-.493,1.176q-.368.82-.77,1.624a34,34,0,0,1-3.593,5.694,28.355,28.355,0,0,1-5.074,4.862,33.8,33.8,0,0,1-16.445,5.841c-1.948.2-3.9.279-5.861.285-3.088.01-3.094,4.81,0,4.8,7.181-.023,14.452-1.156,20.9-4.451A32.185,32.185,0,0,0,246.7,117.759a45.294,45.294,0,0,0,5.742-13.337q.1-.38.2-.76c.039-.155.221-.8.036-.34.188-.473.485-.921.7-1.387a34.608,34.608,0,0,0,1.349-3.452,58.271,58.271,0,0,0,1.9-7.751,134.357,134.357,0,0,0,1.985-19.164,127.23,127.23,0,0,0-.447-18.136,43.171,43.171,0,0,0-1.141-7.088,48.074,48.074,0,0,0-2.111-5.37c-.812-1.952-1.649-3.893-2.548-5.806-3.439-7.325-7.852-14.434-14.068-19.729C225.932,4.908,209.337.942,193.45.146,191.483.048,189.514,0,187.545,0c-3.089,0-3.093,4.8,0,4.8Z"></path><path class="c" d="M159.376,29.157c-6.563,1.617-12.978,4.672-17.741,9.56-5.234,5.37-7.532,12.524-8.819,19.751a120.254,120.254,0,0,0,1.389,48.911,40.135,40.135,0,0,0,9.749,18.033,25.429,25.429,0,0,0,8.4,6.375,20.777,20.777,0,0,0,8.363,1.554c9.315-.018,18.63-.1,27.945-.17q7.966-.055,15.932-.106c3.877-.022,7.849.211,11.716-.074,6.982-.516,13.283-5.31,17.468-10.657,4.471-5.711,6.674-12.31,8.065-19.348,3.118-15.783,3.308-32.6-.338-48.322-1.66-7.154-4.907-13.76-10.761-18.379a36.593,36.593,0,0,0-16.09-7.339,86.1,86.1,0,0,0-10.394-.916c-4.775-.223-9.557-.313-14.337-.338a235.9,235.9,0,0,0-26.614.87,32.223,32.223,0,0,0-3.934.595c-3,.711-1.733,5.34,1.276,4.629.459-.108.922-.192,1.387-.264.139-.022.278-.041.417-.062.53-.08-.593.071-.041.006.384-.045.768-.092,1.153-.132,1.7-.177,3.4-.3,5.106-.393,4.363-.251,8.735-.361,13.1-.418,8.942-.116,17.929-.085,26.852.561.787.057,1.574.121,2.36.2.348.033.7.069,1.045.109l.486.057c.7.077-.3-.049.115.013a31.829,31.829,0,0,1,5.536,1.409c5.71,1.95,11.21,5.4,14.547,10.536,3.837,5.909,4.987,13.343,5.808,20.211A117.783,117.783,0,0,1,239,88.761a111.177,111.177,0,0,1-1.513,11.555,64.232,64.232,0,0,1-2.5,10.117,30.034,30.034,0,0,1-10.9,14.584,16.152,16.152,0,0,1-8.56,3.2c-1.583.028-3.169.006-4.753.012q-6.683.029-13.366.078-15.049.1-30.1.2c-3.6.02-7.645.5-11.142-.45a17.528,17.528,0,0,1-7.7-4.907,36.239,36.239,0,0,1-5.866-7.54c-3.518-6.056-4.763-13.119-5.744-19.969a115.021,115.021,0,0,1-.906-22.962c.431-7.38,1.278-15.134,3.851-22.111a25.209,25.209,0,0,1,12.337-13.651,37.567,37.567,0,0,1,8.526-3.137C163.65,33.048,162.38,28.418,159.376,29.157Z"></path><path class="c" d="M210.466,130.735v10.681a2.4,2.4,0,0,0,4.8,0V130.735a2.4,2.4,0,1,0-4.8,0Z"></path><path class="c" d="M162.046,131.632v9.784a2.4,2.4,0,0,0,4.8,0v-9.784a2.4,2.4,0,0,0-4.8,0Z"></path><path class="c" d="M191.347,231.773c-.109-12.884-10.923-22.82-23.265-24.363-11.391-1.424-22.963,3.972-28.382,14.216a27.737,27.737,0,0,0,1.936,29A29.525,29.525,0,0,0,173.6,260.958c11.01-3.542,16.487-14.388,17.555-25.268.127-1.3.185-2.609.19-3.917.012-3.089-4.788-3.094-4.8,0-.032,8.789-3,18.685-11.112,23.2-8.539,4.759-20.721,2.376-27.541-4.368a22.732,22.732,0,0,1-6.287-12.25,23.9,23.9,0,0,1-.23-6.536c0-.047.107-.788.031-.269.034-.231.072-.46.113-.689q.105-.585.238-1.162a25.108,25.108,0,0,1,.915-3.062,23.677,23.677,0,0,1,36.545-9.564,19.4,19.4,0,0,1,7.328,14.7c.027,3.087,4.827,3.094,4.8,0Z"></path><path class="c" d="M244.493,247.522c-9.14-5.366-21.252-2.895-27.958,5.171a33.751,33.751,0,0,0-6.727,13.285c-1.405,5.421-1.946,11.189.5,16.4,4.162,8.847,15.081,12.063,24.121,11,5.762-.675,11.211-2.571,16.6-4.634a20.962,20.962,0,0,0,6.952-3.715,10.038,10.038,0,0,0,3.085-6.672,19.132,19.132,0,0,0-1.514-8.264,61.284,61.284,0,0,0-14.58-22.2c-2.21-2.162-5.607,1.229-3.394,3.394a57.352,57.352,0,0,1,8.541,10.56,46.878,46.878,0,0,1,5.617,11.943,9.9,9.9,0,0,1,.257,5.75c-.606,1.807-2.2,2.81-3.843,3.591a68.621,68.621,0,0,1-6.528,2.514,69.127,69.127,0,0,1-7.317,2.208c-7.611,1.784-16.836,1.285-22.189-5.22-2.731-3.319-3.147-7.715-2.458-11.829A32.135,32.135,0,0,1,218,258.78a18.967,18.967,0,0,1,10.088-8.4,16.886,16.886,0,0,1,13.978,1.285c2.67,1.567,5.088-2.58,2.423-4.145Z"></path><path class="c" d="M150.467,145.438a134.262,134.262,0,0,0-24.739-6.737,77.385,77.385,0,0,0-12.614-1.483,16.725,16.725,0,0,0-7.443,1.437,15.818,15.818,0,0,0-5.164,4.222,93.763,93.763,0,0,0-8.156,12.006Q88.5,161.263,85.284,168c-1.084,2.269-2.414,4.647-2.89,7.135a10.408,10.408,0,0,0,1.471,7.465,65.872,65.872,0,0,0,8.087,10.655,75.985,75.985,0,0,0,23.818,17.61,2.469,2.469,0,0,0,3.284-.861,2.421,2.421,0,0,0-.861-3.284,72.206,72.206,0,0,1-19.916-13.811,69.85,69.85,0,0,1-7.867-9.137c-1.171-1.635-2.644-3.422-3.243-5.366-.627-2.035.453-4.09,1.288-5.908a151.573,151.573,0,0,1,13.89-24.161c2.33-3.3,4.951-6.044,9.209-6.285a52.62,52.62,0,0,1,11.54,1.045,134.028,134.028,0,0,1,26.1,6.973,2.419,2.419,0,0,0,2.953-1.676,2.455,2.455,0,0,0-1.677-2.952Z"></path><path class="c" d="M228.373,151.336a178.825,178.825,0,0,1,22.713-7.26,70.971,70.971,0,0,1,10.7-1.905,19.8,19.8,0,0,1,6.59.209,9.923,9.923,0,0,1,4.8,3.142c2.927,3.189,5.213,7.129,7.467,10.805q3.715,6.059,6.862,12.442a49.949,49.949,0,0,1,2.858,6.322c.744,2.265.143,3.877-1.1,5.823a66.909,66.909,0,0,1-7.424,9.536,72.43,72.43,0,0,1-22.3,16.266,2.422,2.422,0,0,0-.861,3.284,2.454,2.454,0,0,0,3.284.861,76.09,76.09,0,0,0,21.743-15.416,76.872,76.872,0,0,0,8.572-10.408c1.341-1.951,2.757-4.02,3.146-6.4.45-2.76-.509-5.253-1.621-7.728a141.581,141.581,0,0,0-14.969-25.967A23.586,23.586,0,0,0,274.225,140a13.848,13.848,0,0,0-6.936-2.656c-4.254-.5-8.757.287-12.93,1.1a160.652,160.652,0,0,0-27.262,8.261,2.471,2.471,0,0,0-1.677,2.952,2.418,2.418,0,0,0,2.953,1.676Z"></path><path class="c" d="M265.839,221.738a10.509,10.509,0,0,1-1.387,8.774c-1.046,1.571-2.553,2.892-2.045,5,.449,1.861,2.14,2.765,3.667,3.649,6.7,3.88,13.6,7.414,20.479,10.966,3.846,1.985,7.692,3.972,11.506,6.021a2.476,2.476,0,0,0,3.283-.861c9.886-13.287,10.306-32.733,1.1-46.48a2.454,2.454,0,0,0-2.711-1.1c-10.735,3.7-21.659,6.887-32.219,11.084a2.476,2.476,0,0,0-1.676,2.953,2.417,2.417,0,0,0,2.952,1.676c10.56-4.2,21.484-7.384,32.22-11.085l-2.711-1.1a36.661,36.661,0,0,1-1.1,41.636l3.283-.861c-8.346-4.485-16.845-8.678-25.177-13.188q-3.045-1.648-6.052-3.364c-.5-.289-1-.577-1.5-.872-.062-.037-.894-.6-.913-.6q-.018,1.559.315.844.255-.3.5-.61c.329-.414.652-.835.945-1.275a15.232,15.232,0,0,0,1.871-12.473c-.849-2.964-5.482-1.7-4.629,1.277Z"></path><path class="c" d="M257.627,55.279a4.631,4.631,0,0,1,3.659-.2,6.766,6.766,0,0,1,3.017,2.824,13.141,13.141,0,0,1,1.194,2.656c.162.495.314,1,.427,1.509.034.154.168,1.037.088.414a34.629,34.629,0,0,1,.217,4.3c.011,3.554-.208,7.114-.543,10.652q-.1,1.1-.229,2.192-.06.519-.127,1.036c-.054.425.083-.558-.013.1-.024.161-.047.321-.072.481a13.7,13.7,0,0,1-.857,3.2,11.156,11.156,0,0,1-1.367,2.555,5.4,5.4,0,0,1-1.323,1.133c-2.22,1.349-4.34,1.2-6.706.283a2.419,2.419,0,0,0-2.953,1.676,2.457,2.457,0,0,0,1.676,2.953c4.938,1.921,10.694.584,13.68-3.959,2.006-3.052,2.527-6.415,2.918-9.947a111.28,111.28,0,0,0,.716-12.078c0-4.126-.459-8.11-2.669-11.718a11.062,11.062,0,0,0-5.919-4.926,10,10,0,0,0-7.237.723,2.419,2.419,0,0,0-.861,3.284,2.458,2.458,0,0,0,3.284.861Z"></path><path class="c" d="M187.545,0c-15.835.025-32.7,2.817-46.046,11.862a51.632,51.632,0,0,0-16.092,18.047,109.417,109.417,0,0,0-5.3,11.253,36.486,36.486,0,0,0-2.663,8.36,104.768,104.768,0,0,0-1.069,17.169,151.439,151.439,0,0,0,1.406,19.72c.738,5.3,1.733,10.722,3.984,15.617.188.409.43.8.609,1.213.136.312-.122-.384-.027-.011.027.108.058.216.081.324.069.328.168.654.256.976q.448,1.659.993,3.289a47.123,47.123,0,0,0,2.921,6.9,33.365,33.365,0,0,0,10.28,11.792c5.416,3.814,11.934,5.634,18.455,6.32a59.674,59.674,0,0,0,6.052.3c3.089.01,3.093-4.79,0-4.8-6.464-.021-13.126-.963-18.862-4a27.409,27.409,0,0,1-10.383-9.622c-.627-.991-1.2-2.016-1.728-3.064-.534-1.063-.956-2.023-1.263-2.8a53.654,53.654,0,0,1-2.037-6.36,17.546,17.546,0,0,0-1.245-2.981c-.058-.125-.112-.251-.167-.377.015.035.142.344.038.084q-.144-.354-.279-.713c-.2-.541-.391-1.089-.568-1.64a60.06,60.06,0,0,1-1.816-7.555A125.983,125.983,0,0,1,121.276,71.4a129.19,129.19,0,0,1,.4-17.453c.136-1.376.212-2.016.392-3.153.154-.973.334-1.943.563-2.9A34.327,34.327,0,0,1,124.5,43q1.086-2.64,2.29-5.229c3.24-6.935,7.267-13.61,13.1-18.679,11.384-9.9,27.253-13.449,41.954-14.16,1.9-.091,3.8-.133,5.707-.136,3.088,0,3.094-4.8,0-4.8Z"></path><path class="c" d="M119.886,51.134c-4.261-1.926-8.9-1.176-11.946,2.53-2.831,3.442-3.775,7.7-3.866,12.044a102.184,102.184,0,0,0,.569,12.13,28.126,28.126,0,0,0,2.246,9.783c2.612,5.508,8.9,7.591,14.485,5.418a2.472,2.472,0,0,0,1.677-2.953A2.418,2.418,0,0,0,120.1,88.41c-2.088.813-4.089,1.114-6.138.036a5.385,5.385,0,0,1-2.71-2.812,12.905,12.905,0,0,1-1.279-3.627q-.06-.338-.112-.676c-.024-.151-.13-.891-.1-.669.027.193-.077-.621-.1-.8q-.074-.618-.138-1.237c-.37-3.514-.606-7.051-.654-10.584-.022-1.542-.012-3.089.114-4.626.026-.312.055-.623.095-.932-.078.6.024-.1.055-.255a14.677,14.677,0,0,1,.918-2.909,7.979,7.979,0,0,1,3.493-4.131,4.615,4.615,0,0,1,1.744-.38,5.061,5.061,0,0,1,2.175.47,2.473,2.473,0,0,0,3.284-.861,2.421,2.421,0,0,0-.861-3.284Z"></path><path class="c" d="M70.544,239.741c-1.888-4.18-2.984-8.052-2.343-12.542a31.593,31.593,0,0,1,4.45-12.2,23.809,23.809,0,0,0,1.543-2.142l-.731.239.357.083a4.33,4.33,0,0,0,1.162.286q1.231.3,2.466.58c2.429.552,4.872,1.048,7.332,1.445a80.263,80.263,0,0,0,13.493,1.087,139.78,139.78,0,0,0,16.93-1.441l-2.315-3.038c-1.033,4.2-.79,8.65,2.611,11.708v-3.395c-5.969,6.632-11.921,13.373-18.835,19.05a51.6,51.6,0,0,1-9.555,6.345c-2.755,1.382-6.433,3.063-9.533,2.027-3.489-1.164-5.578-4.981-7.032-8.093a2.419,2.419,0,0,0-3.284-.861,2.455,2.455,0,0,0-.861,3.283c1.668,3.571,4,7.151,7.463,9.211,3.623,2.156,7.759,1.748,11.579.354,8.511-3.105,15.651-9.289,21.979-15.6,3.976-3.964,7.719-8.152,11.474-12.322a2.436,2.436,0,0,0,0-3.395c-2.035-1.828-2.054-4.287-1.377-7.037.33-1.341-.7-3.25-2.314-3.038-10.267,1.347-20.439,2.088-30.7.262-2.769-.493-5.517-1.1-8.25-1.762-1.461-.354-3.006-.849-4.438-.111a8.218,8.218,0,0,0-2.638,2.828,34.828,34.828,0,0,0-5.5,13.679,24.525,24.525,0,0,0-.351,7.322,34.254,34.254,0,0,0,3.064,9.608,2.418,2.418,0,0,0,3.284.861A2.457,2.457,0,0,0,70.544,239.741Z"></path><path class="c" d="M133.9,279.6a23.779,23.779,0,0,0-10.134-4.973,2.4,2.4,0,1,0-1.276,4.629,21.431,21.431,0,0,1,2.377.642c.39.131.772.279,1.156.426q.36.147-.146-.066l.282.124c.188.083.374.169.56.258a20.938,20.938,0,0,1,2.154,1.194q.521.329,1.021.689c.056.041.5.312.5.367q-.424-.329-.122-.09c.08.064.159.129.238.194a2.585,2.585,0,0,0,1.7.7,2.4,2.4,0,0,0,1.7-4.1Z"></path><path class="c" d="M130.448,288.709a26.4,26.4,0,0,0-10.255,1.843,2.618,2.618,0,0,0-1.434,1.1,2.4,2.4,0,0,0,2.71,3.525,24.644,24.644,0,0,1,4.631-1.351c.176-.033.353-.064.529-.093.068-.011.78-.112.389-.062s.325-.035.392-.042c.178-.018.356-.035.535-.049a24.6,24.6,0,0,1,2.5-.074,2.4,2.4,0,1,0,0-4.8Z"></path></svg>